<svg id="e8FZQSJ2sLw1" xmlns="http://www.w3.org/2000/svg" xmlns:xlink="http://www.w3.org/1999/xlink" viewBox="0 0 45 45" shape-rendering="geometricPrecision" text-rendering="geometricPrecision" project-id="7abeaac6633d4d0e91ef28a48dbb310c" export-id="25ec3492dc9a4f4c9249eef08b8ccbd3" cached="false"><path d="M1026.3293,362.379c-11.7978-23.4204-10.6057-65.1398-9.6194-81.3044c18.6584-1.2796,32.0775-4.8129,32.0775-8.9774c0-4.0877-12.9163-7.5701-31.0339-8.9066c11.5704-5.9634,19.4879-18.0177,19.4879-31.9297c0-19.8352-16.0715-35.9126-35.9063-35.9126s-35.9063,16.0778-35.9063,35.9126c0,13.9117,7.9206,25.9659,19.4878,31.9297-18.1146,1.3365-31.0368,4.8188-31.0368,8.9066c0,4.1645,13.4263,7.6978,32.0807,8.9774.9893,16.1668,2.1813,57.8849-9.6164,81.3044-23.1226,4.6483-39.3481,15.5615-39.3481,28.2717h128.675c0-12.7102-16.2024-23.6271-39.326-28.2834l-.0157.0117Z" transform="matrix(.16 0 0 0.16-137.713337-24.379929)" stroke="#000" stroke-width="2.4843" stroke-linejoin="round"/></svg>
