<svg id="eM26lnsYXf31" xmlns="http://www.w3.org/2000/svg" xmlns:xlink="http://www.w3.org/1999/xlink" viewBox="0 0 45 45" shape-rendering="geometricPrecision" text-rendering="geometricPrecision" project-id="7abeaac6633d4d0e91ef28a48dbb310c" export-id="cb0c0d03211b4dadb7fe89c9ec11ce02" cached="false"><g transform="matrix(.15 0 0 0.15 17.221359-20.490839)"><path d="M149.8915,385.1882c-1.9648-1.0723-19.6615-18.4619-36.0731-18.4619-8.5335,0-15.2252,2.5746-21.1241,4.8481-5.9848,2.3043-11.6349,4.4794-19.8135,4.4794-9.532,0-17.4448-2.9095-24.4297-5.4748-5.6315-2.0646-10.4951-3.8527-15.4725-3.8527-4.9739,0-9.8378,1.7881-15.4693,3.8527-6.9818,2.5654-14.8964,5.4748-24.4281,5.4748-8.1801,0-13.8302-2.1752-19.8135-4.4794-5.9005-2.2736-12.5906-4.8481-21.1225-4.8481-16.4157,0-34.1131,17.3894-36.0762,18.4619c0,0,7.1448-4.4703,13.7934-4.4703c6.6502,0,12.4091,4.6638,22.2838,4.6638c5.0649,0,9.1926,1.5884,14.4217,3.6007c6.6241,2.5531,14.8656,5.7237,26.5143,5.7237c12.8518,0,23.2609-3.8219,30.8619-6.6118c3.4594-1.2719,7.3798-2.7129,9.0359-2.7129c1.6621,0,5.5793,1.4409,9.0387,2.7129c7.6025,2.7897,18.0101,6.6118,30.8635,6.6118c11.6459,0,19.8905-3.1706,26.5143-5.7237c5.226-2.0124,9.3552-3.6007,14.4233-3.6007c9.8731,0,17.3557-4.6638,22.2806-4.6638s13.8743,4.4674,13.8743,4.4674l-.0832.0029Z" transform="translate(2.169089 0)" fill="#20201e"/><path d="M95.6844,278.5043c0-29.4301-25.1118-76.0819-44.3316-82.3898-.6682-.2197-1.3564-.404-2.0631-.5515c3.3518-1.2428,5.7485-4.458,5.7485-8.2431c0-4.8576-3.9402-8.793-8.793-8.793-4.8544,0-8.7977,3.9358-8.7977,8.793c0,3.3751,1.9079,6.2985,4.6962,7.7762-3.9402.255-8.1971,1.2796-12.5828,3.0462-2.7974-1.272-5.5808-2.1829-8.323-2.6822c3.2074-1.3103,5.472-4.4627,5.472-8.1402c0-4.8576-3.9358-8.793-8.793-8.793s-8.793,3.9358-8.793,8.793c0,3.4302,1.9694,6.3982,4.8358,7.8466-1.4886.1644-2.9541.4731-4.3872.9478-19.1745,6.3092-43.7275,51.2341-43.7275,82.3898c0,24.8463,10.0666,46.2507,21.6863,61.7451c1.7297,4.5933,4.3595,4.7282,4.9281,5.2967.0015,0,.0031-.0031.0046-.0031-.0108.0768-2.3027,14.9747-2.527,18.3389-.3456,5.186-.8679,11.3124-.8679,11.3124c12.6781,5.5765,26.5697,8.8147,41.6605,8.8147c15.0943,0,28.301-3.5516,40.9747-9.1249-.4516-4.1447-.9693-8.2862-2.0062-14.5076-.5407-3.2537-2.4026-14.8394-2.4026-14.8394.5653-.5623,3.9848-4.8513,3.9848-4.8513c12.3327-15.5732,24.3822-36.3374,24.3822-62.1667l.0219-.0146Z" fill="#fff" stroke="#20201e" stroke-width="4.1522"/><path d="M-7.2242,345.5475c10.2817-4.4304,22.1041-8.3138,37.4228-8.3138c15.3142,0,27.1319,3.8804,37.4133,8.3044.5638-.5622,1.9079-2.0032,4.6839-5.8898-8.6502-9.3615-21.2393-14.5047-41.8335-14.5047-21.9736,0-33.9683,5.7331-42.617,15.1069c1.7618,4.5618,4.4045,4.7191,4.9708,5.2854l-.0403.0116Z" stroke="#000" stroke-width="1.6765"/><path d="M71.3652,374.869c-12.6797-5.5701-25.6466-8.3322-40.7387-8.3322s-29.2196,3.0724-41.8965,8.6426c12.6765,5.5765,26.5681,8.8147,41.6605,8.8147c15.1012,0,28.3148-3.5551,40.9935-9.1237l-.0188-.0014Z" fill="#fff" stroke="#000" stroke-width="3.1886" stroke-linejoin="bevel"/><path d="M71.0191,340.671c7.9851-13.3463,18.4908-38.5176,5.3628-81.3547-11.0145-35.9409-43.4664-71.0104-67.0715-63.2175-20.9366,6.9129-43.7275,56.4188-43.7275,82.3898c0,24.8463,10.0634,46.2507,21.6816,61.7451l83.7804.409-.0258.0283Z" stroke="#000" stroke-width="1.6765"/><circle r="8.7939" transform="translate(17.6614 187.299)" stroke="#000" stroke-width="1.6765"/><path d="M67.0235,345.516l-.0031-.0092c-10.2817-4.4212-22.1085-8.1263-37.4133-8.1263-15.3171,0-27.1287,3.7083-37.4133,8.1355c0,0-2.3043,14.9716-2.5285,18.3448-.3456,5.186-.8664,11.3124-.8664,11.3124c12.6749-5.5701,26.8063-8.6426,41.8933-8.6426c14.8026,0,28.2425,2.9618,40.7387,8.3322-.4501-4.1447-.9693-8.2862-2.0047-14.5076-.5663-3.2719-2.4225-14.881-2.4225-14.881l.0198.0418Z" stroke="#000" stroke-width="1.6765" stroke-linejoin="bevel"/><path d="M66.646,365.588c-11.397-3.5393-23.5649-5.4843-36.1203-5.4843-12.7687,0-25.8184,2.08-37.5234,5.7545" fill="none" stroke="#fff" stroke-width="1.6765" stroke-linecap="round" stroke-linejoin="bevel"/><g><path d="M-4.55,344.1631c9.5229-3.8344,20.442-6.9529,34.1665-6.9529c13.7978,0,24.7553,3.1524,34.3144,7.0111" fill="none" stroke="#fff" stroke-width="1.6765" stroke-linecap="round"/><path d="M70.1382,337.3991c-12.0882-9.6685-21.7615-12.2587-39.6627-12.2587-14.993,0-30.4639,3.9694-37.8758,10.7593" fill="none" stroke="#fff" stroke-width="1.6765" stroke-linecap="round"/></g><polygon points="51.4818,262.1446 47.3919,266.266 26.6907,266.266 26.6907,247.5782 30.8121,243.4568 22.5064,235.1512 14.2007,243.4568 18.3535,247.6096 18.3535,266.266 -2.4736,266.266 -6.5949,262.1446 -14.9006,270.4503 -6.5949,278.756 -2.4106,274.6031 18.3535,274.6031 18.3535,297.3808 14.2007,301.5336 22.5064,309.8393 30.8121,301.5336 26.6907,297.4123 26.6907,274.6031 47.329,274.6031 51.4818,278.756 59.7875,270.4503" fill="#fff" stroke="#000" stroke-width="1.6765"/></g></svg>
