<svg id="ev2Gh4mj8Hd1" xmlns="http://www.w3.org/2000/svg" xmlns:xlink="http://www.w3.org/1999/xlink" viewBox="0 0 45 45" shape-rendering="geometricPrecision" text-rendering="geometricPrecision" project-id="6a109b10b3ac4b79945502fa18388e16" export-id="bd96bd2783264b6fbbc3d30a335fbbfd" cached="false"><path d="M19,272.47l40.63,18.06c7.890276,3.50692,16.862904,3.676419,24.88.47l12.78-5.12c9.048837-3.619976,15.954733-11.166397,18.76-20.5l9.22-30.65c1.697985-6.798676,6.282536-12.515666,12.55-15.65L159.94,208v50.33c.003549,18.182924-10.267407,34.80693-26.53,42.94L76.19,329.92C49.098188,343.481487,31.991559,371.183463,32,401.48v14.52h319.86v-192c0-106-85.92-192-191.92-192L12,32C5.372583,32,0,37.372583,0,44c-.001628,2.63157.611314,5.227159,1.79,7.58L16,80L7,89c-4.497301,4.512905-7.015624,10.628832-7,17v137.21c-.007755,12.651735,7.439322,24.120234,19,29.26ZM52,128c11.045695,0,20,8.954305,20,20s-8.954305,20-20,20-20-8.954305-20-20s8.954305-20,20-20ZM368,448h-352c-8.836556,0-16,7.163444-16,16v32c0,8.836556,7.163444,16,16,16h352c8.836556,0,16-7.163444,16-16v-32c0-8.836556-7.163444-16-16-16Z" transform="matrix(.07 0 0 0.07 9.059962 3.46)"/></svg>
