<svg id="eoltL7IDrzv1" xmlns="http://www.w3.org/2000/svg" xmlns:xlink="http://www.w3.org/1999/xlink" viewBox="0 0 45 45" shape-rendering="geometricPrecision" text-rendering="geometricPrecision" project-id="34dd4ce500e8481d927d78a084d97bed" export-id="d13922c86d534646b2d5f27b67df6fd0" cached="false"><path d="M400,448h-352c-8.836556,0-16,7.163444-16,16v32c0,8.836556,7.163444,16,16,16h352c8.836556,0,16-7.163444,16-16v-32c0-8.836556-7.163444-16-16-16Zm16-288h-160v-48h40c4.418278,0,8-3.581722,8-8v-48c0-4.418278-3.581722-8-8-8h-40v-40c0-4.418278-3.581722-8-8-8h-48c-4.418278,0-8,3.581722-8,8v40h-40c-4.418278,0-8,3.581722-8,8v48c0,4.418278,3.581722,8,8,8h40v48h-160c-10.174521.007903-19.73892,4.853829-25.76312,13.053215s-7.790163,18.77493-4.75688,28.486785L74.56,416h298.88l73.08-214.46c3.033283-9.711855,1.267321-20.287398-4.75688-28.486785s-15.588599-13.045312-25.76312-13.053215Z" transform="matrix(.07 0 0 0.07 6.820019 4.58)"/></svg>
