<svg id="emICuXbHvf11" xmlns="http://www.w3.org/2000/svg" xmlns:xlink="http://www.w3.org/1999/xlink" viewBox="0 0 45 45" shape-rendering="geometricPrecision" text-rendering="geometricPrecision" project-id="7abeaac6633d4d0e91ef28a48dbb310c" export-id="dd8c3f615acc4a6db5559579028b5977" cached="false"><g transform="matrix(.16 0 0 0.16-21.218962-23.930873)"><path d="M289.5465,255.2547c4.2551-2.5163,6.0524-5.8819,6.0524-9.5858c0-1.0845.1536-52.1748.1536-52.1748h-50.6521c0,0-.2381,51.5298-.2381,52.1748c0,3.7313,2.6438,7.1202,6.9572,9.6424-3.0508.444-6.0679.9877-9.0513,1.6422c4.7714,3.0493,9.2784,6.6103,13.4477,10.6719c5.9081,5.747,10.7962,12.1112,14.6337,18.9734c3.8373-6.8622,8.7285-13.2265,14.6306-18.9734c4.1783-4.0616,8.6885-7.6287,13.4599-10.6778-3.0517-.6607-6.1978-1.1955-9.3439-1.6674l-.0497-.0255Z" transform="translate(2.169089 0)" stroke="#000" stroke-width="0.975"/><path d="M336.1401,371.3768c-3.1338-6.2831-3.2197-14.4984-1.828-20.0472c1.4256-5.7083,14.9471-16.5107,14.9471-16.5107c23.82-23.1688,29.2734-56.1955,12.1848-73.7632-17.0946-17.5662-50.2525-13.0144-74.0716,10.1572-7.1124,6.922-12.5689,14.7212-16.299,22.7277-3.7269-8.0065-9.1894-15.8056-16.2989-22.7277-23.8152-23.1716-56.9788-27.7233-74.0716-10.1572-17.087,17.5662-11.6304,50.5954,12.1836,73.7632c1.0753,1.0446,12.9456,10.8024,14.3726,16.5107c1.424,5.7023,1.6222,13.8994-1.8035,20.2589h.5146c-.0753.043-.149.0707-.2258.1137c19.709,9.7208,41.8902,15.1896,65.3474,15.1896c23.4384-.0315,45.3037-5.8203,65.0297-15.5417" transform="translate(2.169089 0)"/><g transform="translate(2.169089 0)"><path d="M209.1954,370.2128c18.9687-8.8515,39.9428-13.7641,62.2548-13.7641c21.4327,0,42.0035,5.2628,60.3546,12.7379" stroke="#fff" stroke-width="3.1741" stroke-linecap="round"/><path d="M340.9221,333.4665c-19.7552-6.704-43.9635-10.6549-70.1201-10.6549-26.3853,0-50.7842,4.0248-70.636,10.8361" stroke="#fff" stroke-width="3.1741" stroke-linecap="round"/></g><polygon points="291.623,197.1778 249.1192,235.277 291.623,235.277 249.1192,197.1778" transform="translate(2.169089 0)" fill="none" stroke="#fff" stroke-width="1.9503" stroke-linejoin="bevel"/><path d="M328.558,356.7161c-18.1913-6.3875-37.5454-11.0204-57.6207-11.0204-20.4619,0-40.1724,4.7622-58.6589,11.3737" transform="translate(2.169089 0)" fill="none" stroke="#fff" stroke-width="3.1741" stroke-linecap="round"/><polygon points="260.98,335.2912 270.9531,340.262 280.9262,335.2912 270.9531,330.2889" transform="translate(2.169089 0)" fill="#fff" stroke="#000" stroke-width="0.9974"/><polygon points="220.2381,341.7722 230.8719,345.0755 239.9012,338.5631 229.2674,335.2283" transform="translate(2.169089 0)" fill="#fff" stroke="#000" stroke-width="0.9974"/><polygon points="321.6996,341.7722 311.0343,345.0755 302.005,338.5631 312.6388,335.2283" transform="translate(2.169089 0)" fill="#fff" stroke="#000" stroke-width="0.9974"/><rect width="42.5225" height="38.0992" rx="0" ry="0" transform="translate(251.288089 197.178)" fill="none" stroke="#fff" stroke-width="1.9503" stroke-linejoin="bevel"/><ellipse rx="17.9271" ry="13.2409" transform="translate(272.902089 252.612)" fill="none" stroke="#fff" stroke-width="1.9503"/></g></svg>
