<svg id="eTyEJCeZoLk1" xmlns="http://www.w3.org/2000/svg" xmlns:xlink="http://www.w3.org/1999/xlink" viewBox="0 0 45 45" shape-rendering="geometricPrecision" text-rendering="geometricPrecision" project-id="7abeaac6633d4d0e91ef28a48dbb310c" export-id="dc43cfdcd29945d89b291f492c5eea00" cached="false"><g transform="matrix(.15 0 0 0.15 17.712404 20.025203)"><path d="M146.6196,115.0649c-1.9648-1.0707-19.6615-18.4603-36.0762-18.4603-8.5319,0-15.2236,2.5762-21.1241,4.8465-5.9836,2.3043-11.6336,4.481-19.8122,4.481-9.532,0-17.4448-2.908-24.4313-5.4736-5.6302-2.0677-10.4951-3.8543-15.4709-3.8543-4.9739,0-9.8362,1.7866-15.4678,3.8543-6.9818,2.5654-14.8964,5.4736-24.4297,5.4736-8.1786,0-13.8302-2.1768-19.8135-4.481-5.9005-2.2705-12.5919-4.8465-21.1254-4.8465-16.4125,0-34.1099,17.3894-36.0731,18.4603c0,0,7.5317-4.4687,13.7934-4.4687s12.4076,4.6622,22.2806,4.6622c5.0677,0,9.1954,1.5899,14.4248,3.6038c6.6241,2.5501,14.8672,5.7237,26.5143,5.7237c12.8502,0,23.2609-3.8219,30.8619-6.6131c3.461-1.2735,7.3798-2.7144,9.0359-2.7144c1.6621,0,5.5793,1.4409,9.0387,2.7144c7.601,2.7912,18.0101,6.6131,30.8635,6.6131c11.6443,0,19.8889-3.1738,26.5143-5.7237c5.2244-2.0139,9.3552-3.6038,14.4217-3.6038c9.8746,0,13.9469-4.6622,22.2822-4.6622c8.4001,0,13.8743,4.4674,13.8743,4.4674l-.0814.0013Z" transform="translate(2.169089 0)" fill="#fff" stroke="#20201e" stroke-width="4.1522" stroke-linecap="round" stroke-linejoin="round"/><path d="M47.8009,-74.0026c-.6667-.2182-1.3564-.4025-2.0585-.5499c3.3487-1.2443,5.7438-4.458,5.7438-8.2431c0-4.8576-3.9358-8.793-8.793-8.793s-8.7946,3.9358-8.7946,8.793c0,3.3751,1.9018,6.2985,4.693,7.7762-25.2395,1.6391-63.5542,34.887-64.7749,91.18-.4854,22.3668,2.3504,40.6758,10.1619,53.9743l84.4505-.6022C80.7754,53.9558,92.1293,34.2399,92.1293,8.3885c0-34.3931-25.1058-76.1039-44.3284-82.415v.0239Z" fill="#fff" stroke="#20201e" stroke-width="4.1522"/><path d="M73.0955,-10.7819c-9.2847-30.2965-33.7953-59.955-55.4089-63.8719c3.2121-1.3103,5.4736-4.4627,5.4736-8.1402c0-4.8576-3.9358-8.793-8.793-8.793-4.856,0-8.7946,3.9358-8.7946,8.793c0,3.4302,1.9709,6.3982,4.839,7.8467-1.4916.1628-2.9556.4731-4.3872.9462-19.1745,6.3107-43.7306,48.7078-43.7306,82.393c0,24.8462,10.0666,46.2507,21.6847,61.7452l84.4505-.6022c7.991-13.3394,17.7754-37.5014,4.6562-80.3228l.0103.006Z" fill="#fff" stroke="#20201e" stroke-width="4.1522"/><path d="M68.1561,104.7772c-10.6118-4.8682-25.645-8.3337-40.7324-8.3337-15.0943,0-29.2243,3.0723-41.8996,8.6455c12.6749,5.5701,26.5697,8.81,41.6605,8.81c15.1012,0,28.3148-3.5551,40.9935-9.1236l-.022.0018Z" fill="#fff" stroke="#000" stroke-width="3.1886" stroke-linejoin="bevel"/><path d="M63.7516,75.4241l-.0077-.0108c-10.2817-4.4196-22.1101-8.1248-37.4133-8.1248-15.3171,0-27.1287,3.7083-37.4133,8.1355c0,0-2.3043,14.9685-2.527,18.348-.3472,5.1816-.8679,11.3124-.8679,11.3124c12.6749-5.5733,26.8047-8.6455,41.8996-8.6455c14.7979,0,28.238,2.9602,40.7324,8.3337-.4486-4.1478-.9678-8.2921-2.0032-14.5107-.5663-3.3034-2.4225-14.881-2.4225-14.881l.0229.0432Z" fill="#fff" stroke="#20201e" stroke-width="4.1522" stroke-linejoin="bevel"/><path d="M-14.4917,105.0917c12.6749-5.5733,26.8047-8.6455,41.8996-8.6455c14.7979,0,28.2381,2.9602,40.7324,8.3337-.3211-3.4701-1.0891-5.6331-1.573-10.0618-12.5551-4.3982-25.2839-6.6423-39.3544-6.6423-14.2298,0-28.3302,2.5838-41.0061,7.0771-.0629,3.9012-.7236,9.9417-.7236,9.9417l.0251-.0029Z" fill="#fff" stroke="#20201e" stroke-width="4.1522" stroke-linejoin="bevel"/><path d="M-11.0939,75.4241c10.2833-4.424,22.1057-8.2125,37.4259-8.3107c13.0437-.086,27.1334,3.8804,37.4165,8.3044.5638-.5653,2.9525-1.2904,4.6823-5.8898-8.647-9.3615-21.5035-14.2512-42.0978-14.2512-21.9751,0-33.7072,5.4795-42.3527,14.8533c1.6989,4.5933,4.3416,4.7191,4.9079,5.2854l.0179.0086Z" fill="#fff" stroke="#20201e" stroke-width="4.1522"/><line x1="26.3446" y1="55.2892" x2="26.3446" y2="67.1185" fill="none" stroke="#000" stroke-width="3.1886"/><polygon points="48.2099,-7.9787 44.0886,-3.8573 23.3873,-3.8573 23.3873,-22.5262 27.5087,-26.6476 19.203,-34.947 10.8973,-26.6476 15.0501,-22.4822 15.0501,-3.8573 -5.7455,-3.8573 -9.8669,-7.9787 -18.1726,0.327 -9.8669,8.6326 -5.714,4.4798 15.0501,4.4798 15.0501,27.289 10.8973,31.4418 19.203,39.7475 27.5087,31.4418 23.3873,27.3204 23.3873,4.4798 44.0571,4.4798 48.2099,8.6326 56.5156,0.327" fill="#fff" stroke="#000" stroke-width="2.4221"/></g></svg>
