<svg id="ezuxKpW6Ijc1" xmlns="http://www.w3.org/2000/svg" xmlns:xlink="http://www.w3.org/1999/xlink" viewBox="0 0 45 45" shape-rendering="geometricPrecision" text-rendering="geometricPrecision" project-id="7abeaac6633d4d0e91ef28a48dbb310c" export-id="3fe2747960894ab6a0e06968d7af9617" cached="false"><g transform="matrix(.16 0 0 0.16-59.337436-23.357855)"><path d="M618.1242,239.7759c2.676-4.5933,1.1306-10.4859-3.4626-13.1635-4.5838-2.6791-10.4768-1.1306-13.1557,3.461-2.2981,3.9358-1.4809,8.8191,1.6867,11.8224C590.086,257.786,566.1694,286.7716,560.39,293.8c-1.696-.7558-3.4534-1.4763-5.2782-2.1506.5161-5.3874,4.3044-46.5338,6.3167-68.4149c4.3658.0999,8.3906-2.7912,9.5336-7.2017c1.3303-5.1461-1.7604-10.3953-6.9035-11.7286-5.1492-1.3303-10.3969,1.7605-11.7301,6.905-1.1399,4.4073.9739,8.8883,4.8421,10.9239-9.4782,21.5064-27.8693,63.2584-27.9152,63.4315-.0092.0415-.0031.0845-.0123.1259-1.6714-.2012-3.389-.3748-5.1339-.5192-.3502-2.3135-8.2371-50.7118-12.3509-75.9183c4.7255-1.1045,8.2494-5.3336,8.2494-10.3969c0-5.9065-4.7868-10.6948-10.6949-10.6948-5.9021,0-10.6917,4.7884-10.6917,10.6948c0,5.0633,3.5271,9.2923,8.2522,10.3969-4.0925,25.092-11.93,73.1623-12.3415,75.8774-1.8311.1444-3.6161.3226-5.3644.5238-.0123-.0599-.0092-.1106-.0276-.1674-.043-.1721-18.4374-41.9279-27.9092-63.4346c3.8649-2.0293,5.9788-6.5118,4.839-10.9223-1.3334-5.1432-6.5842-8.2339-11.7302-6.9019-5.14,1.3319-8.2339,6.5826-6.9006,11.7255c1.1429,4.4118,5.1646,7.3015,9.5305,7.2002c2.0093,21.8584,5.7853,62.9187,6.3167,68.396-1.7943.6498-3.5148,1.3503-5.186,2.0846-6.0065-7.3014-29.6575-35.9692-42.6704-51.7343c3.1737-3.0032,3.994-7.8866,1.696-11.8224-2.676-4.5917-8.5719-6.1402-13.162-3.461-4.587,2.6776-6.1355,8.5703-3.4563,13.1635c2.295,3.931,6.9529,5.6239,11.1281,4.3382c7.8253,20.3804,33.0843,85.9763,34.0501,86.8793h.0092c.0184.1137,2.5009,16.3848,2.7744,21.7798.2734,5.3672-2.0616,18.4987-1.8926,18.5755v.0123c.0031,0,.0061-.0061.0092-.0061c18.7321,8.7716,40.0654,13.7028,62.9438,13.7028c23.0917,0,64.7748-14.1206,64.5798-14.2127-2.7252-5.7514-1.6959-39.8578-1.6959-39.8578.9647-.9125,26.5543-65.9578,34.585-86.873c4.1213,1.2899,8.7776-.409,11.0742-4.3416" transform="translate(2.169089 0)" stroke="#000" stroke-width="2.684" stroke-linejoin="bevel"/><g transform="translate(2.169089 0)"><path d="M451.2241,367.4442c19.6967-8.1172,38.1338-11.6012,60.7258-11.6012c21.6971,0,39.065,3.5916,57.2242,11.1158" stroke="#fff" stroke-width="2.9123" stroke-linecap="round"/><path d="M565.4272,329.408c-16.0224-6.1569-35.6515-9.7793-56.8561-9.7793-21.396,0-41.1823,3.6869-57.2809,9.9423" stroke="#fff" stroke-width="2.9123" stroke-linecap="round"/></g><path d="M567.3463,356.2127c-17.7335-5.859-35.7868-10.1112-56.1136-10.1112-20.7108,0-40.6695,4.3749-59.3825,10.446" transform="translate(2.169089 0)" fill="none" stroke="#fff" stroke-width="2.9123" stroke-linecap="round"/><polygon points="500.4604,334.3159 509.3953,338.7834 518.3616,334.3159 509.3953,329.8484" transform="translate(2.169089 0)" fill="#fff"/><polygon points="554.9191,340.1362 545.3865,343.1249 537.2697,337.2732 546.8023,334.2844" transform="translate(2.169089 0)" fill="#fff"/><polygon points="463.9028,340.1362 473.4355,343.1249 481.5524,337.2732 472.0197,334.2844" transform="translate(2.169089 0)" fill="#fff"/></g></svg>
