<svg id="e1nP0UhBLGb1" xmlns="http://www.w3.org/2000/svg" xmlns:xlink="http://www.w3.org/1999/xlink" viewBox="0 0 45 45" shape-rendering="geometricPrecision" text-rendering="geometricPrecision" project-id="39581c2b1b2244bc94318cefcbd34740" export-id="8165862390f840c0bbe624c7180092fc" cached="false"><path d="M105.1,224h-25.1c-8.836556,0-16,7.163444-16,16v32c0,8.836556,7.163444,16,16,16h16v5.49c0,44-4.14,86.6-24,122.51h176c-19.89-35.91-24-78.51-24-122.51v-5.49h16c8.836556,0,16-7.163444,16-16v-32c0-8.836556-7.163444-16-16-16h-25.1c29.39-18.38,49.1-50.78,49.1-88c0-57.437614-46.562386-104-104-104s-104,46.562386-104,104c0,37.22,19.71,69.62,49.1,88ZM304,448h-288c-8.836556,0-16,7.163444-16,16v32c0,8.836556,7.163444,16,16,16h288c8.836556,0,16-7.163444,16-16v-32c0-8.836556-7.163444-16-16-16Z" transform="matrix(.07 0 0 0.07 11.3 3.46)"/></svg>
