<svg id="eeY4WjlmrNO1" xmlns="http://www.w3.org/2000/svg" xmlns:xlink="http://www.w3.org/1999/xlink" viewBox="0 0 45 45" shape-rendering="geometricPrecision" text-rendering="geometricPrecision" project-id="161da1b421f54e768da33e163d67ce45" export-id="97bc67f2231747498af8d268af9b7168" cached="false"><g transform="matrix(.07 0 0 0.07 9.06 3.46)"><g><path d="M368,32h-56c-8.836556,0-16,7.163444-16,16v48h-48v-48c0-8.836556-7.163444-16-16-16h-80c-8.836556,0-16,7.163444-16,16v48h-47.9v-48c0-8.836556-7.163444-16-16-16L16,32C7.163444,32,0,39.163444,0,48v176l64,32c0,48.33-1.54,95-13.21,160h282.42C321.54,351,320,303.72,320,256l64-32v-176c0-8.836556-7.163444-16-16-16ZM224,320h-64v-64c0-17.673112,14.326888-32,32-32s32,14.326888,32,32v64ZM368,448h-352c-8.836556,0-16,7.163444-16,16v32c0,8.836556,7.163444,16,16,16h352c8.836556,0,16-7.163444,16-16v-32c0-8.836556-7.163444-16-16-16Z" fill="#fff" stroke="#000" stroke-width="20.48" stroke-linecap="round" stroke-linejoin="round"/></g><g><path d="M368,32h-56c-8.836556,0-16,7.163444-16,16v48h-48v-48c0-8.836556-7.163444-16-16-16h-80c-8.836556,0-16,7.163444-16,16v48h-47.9v-48c0-8.836556-7.163444-16-16-16L16,32C7.163444,32,0,39.163444,0,48v176l64,32c0,48.33-1.54,95-13.21,160h282.42C321.54,351,320,303.72,320,256l64-32v-176c0-8.836556-7.163444-16-16-16ZM224,320h-64v-64c0-17.673112,14.326888-32,32-32s32,14.326888,32,32v64ZM368,448h-352c-8.836556,0-16,7.163444-16,16v32c0,8.836556,7.163444,16,16,16h352c8.836556,0,16-7.163444,16-16v-32c0-8.836556-7.163444-16-16-16Z" fill="#fff" stroke="#fff"/></g></g></svg>
