<svg id="eoQBTCVN8Zs1" xmlns="http://www.w3.org/2000/svg" xmlns:xlink="http://www.w3.org/1999/xlink" viewBox="0 0 45 45" shape-rendering="geometricPrecision" text-rendering="geometricPrecision" project-id="b4d0b1ebc8b448aa8a7631c4f3b0856b" export-id="5264ca734d2e4377b80fe642380906e1" cached="false"><g transform="matrix(.07 0 0 0.07 4.58 4.58)"><g><path d="M256,112c30.927946,0,56-25.072054,56-56s-25.072054-56-56-56-56,25.072054-56,56s25.072054,56,56,56ZM432,448h-352c-8.836556,0-16,7.163444-16,16v32c0,8.836556,7.163444,16,16,16h352c8.836556,0,16-7.163444,16-16v-32c0-8.836556-7.163444-16-16-16Zm72.87-263.84l-28.51-15.92c-7.44-5-16.91-2.46-22.29,4.68-10.937149,14.64108-29.292291,21.725862-47.23,18.23C383.7,186.86,368,164.93,368,141.4c0-7.400616-5.999384-13.4-13.4-13.4h-38.77c-6,0-11.61,4-12.86,9.91-4.676876,22.210818-24.272124,38.109646-46.97,38.109646s-42.293124-15.898828-46.97-38.109646c-1.25-5.92-6.82-9.91-12.86-9.91h-38.77c-3.553901,0-6.962243,1.411782-9.475231,3.924769s-3.924769,5.92133-3.924769,9.475231c0,25.69-19,48.75-44.67,50.49-16.210859,1.142964-31.880901-6.080948-41.54-19.15-5.28-7.09-14.73-9.45-22.09-4.54l-28.57,16c-6.716484,4.474783-9.04886,13.251208-5.44,20.47L104.24,416h303.52L510.31,204.63c3.60886-7.218792,1.276484-15.995217-5.44-20.47Z" fill="#fff" stroke="#050505" stroke-width="20.48" stroke-linecap="round" stroke-linejoin="round"/></g><g><path d="M256,112c30.927946,0,56-25.072054,56-56s-25.072054-56-56-56-56,25.072054-56,56s25.072054,56,56,56ZM432,448h-352c-8.836556,0-16,7.163444-16,16v32c0,8.836556,7.163444,16,16,16h352c8.836556,0,16-7.163444,16-16v-32c0-8.836556-7.163444-16-16-16Zm72.87-263.84l-28.51-15.92c-7.44-5-16.91-2.46-22.29,4.68-10.937149,14.64108-29.292291,21.725862-47.23,18.23C383.7,186.86,368,164.93,368,141.4c0-7.400616-5.999384-13.4-13.4-13.4h-38.77c-6,0-11.61,4-12.86,9.91-4.676876,22.210818-24.272124,38.109646-46.97,38.109646s-42.293124-15.898828-46.97-38.109646c-1.25-5.92-6.82-9.91-12.86-9.91h-38.77c-3.553901,0-6.962243,1.411782-9.475231,3.924769s-3.924769,5.92133-3.924769,9.475231c0,25.69-19,48.75-44.67,50.49-16.210859,1.142964-31.880901-6.080948-41.54-19.15-5.28-7.09-14.73-9.45-22.09-4.54l-28.57,16c-6.716484,4.474783-9.04886,13.251208-5.44,20.47L104.24,416h303.52L510.31,204.63c3.60886-7.218792,1.276484-15.995217-5.44-20.47Z" fill="#fff" stroke="#fff"/></g></g></svg>
