<svg id="eq0DVFtA8aj1" xmlns="http://www.w3.org/2000/svg" xmlns:xlink="http://www.w3.org/1999/xlink" viewBox="0 0 45 45" shape-rendering="geometricPrecision" text-rendering="geometricPrecision" project-id="7abeaac6633d4d0e91ef28a48dbb310c" export-id="3c580653e5ba4cc1868c99b73f6160b2" cached="false"><g transform="matrix(.16 0 0 0.16-21.196362 20.48879)"><path d="M295.8387,-84.1298h-50.6489v52.933c0,7.7929,11.3982,14.1174,25.4513,14.1174c14.0621,0,25.098-6.3243,25.098-14.1174c0-.689.0944-52.933.0944-52.933h.0052Z" transform="translate(2.169089 0)" fill="#fff" stroke="#20201e" stroke-width="3.809"/><rect width="50.6489" height="45.3855" rx="0" ry="0" transform="translate(247.356089-84.1298)" fill="#fff" stroke="#20201e" stroke-width="3.809"/><line x1="245.1866" y1="-84.1298" x2="295.8387" y2="-38.7475" transform="translate(2.169089 0)" fill="none" stroke="#20201e" stroke-width="3.809"/><line x1="295.8387" y1="-84.1298" x2="245.1866" y2="-38.7475" transform="translate(2.169089 0)" fill="none" stroke="#20201e" stroke-width="3.809"/><path d="M335.9199,93.6085c-19.7062-9.724-41.1256-14.8363-64.5861-14.8363-23.4604,0-45.8951,5.4518-65.6054,15.1742c19.7106,9.7239,41.7643,15.3234,65.2215,15.3234c23.4698.0314,45.2723-5.9147,64.9667-15.6361l.0033-.0252Z" transform="translate(2.169089 0)" fill="#fff" stroke="#20201e" stroke-width="3.809" stroke-linejoin="round"/><path d="M345.7672,60.26c1.1306-.9893,2.252-2.0016,3.3518-3.0693c23.8169-23.1732,29.2734-56.1986,12.1848-73.7632-17.0946-17.5662-50.2525-13.0144-74.0684,10.1572-7.1155,6.9205-12.5752,14.7228-16.3018,22.7277-3.7237-8.0049-9.1862-15.8072-16.2989-22.7277-23.8153-23.1716-56.982-27.7233-74.0684-10.1572-17.093,17.5646-11.638,50.5923,12.182,73.7632c1.103,1.0707,2.229,2.0876,3.3673,3.077c20.5647-7.7224,46.559-12.3371,74.8361-12.3371c28.2519,0,54.2386,4.6248,74.7825,12.3327l.033-.0033Z" transform="translate(2.169089 0)" fill="#fff" stroke="#20201e" stroke-width="3.809" stroke-linejoin="bevel"/><path d="M270.9531,16.3406c3.7269-8.0065,9.1862-15.8072,16.3018-22.7245c5.7976-5.6469,12.1574-10.1789,18.7045-13.5628-10.8578-3.0539-22.6493-4.7298-34.9877-4.7298-12.3446,0-24.1488,1.6806-35.0096,4.7393c6.5379,3.3827,12.8946,7.9112,18.6922,13.5537c7.1102,6.9214,12.5529,14.7237,16.2967,22.7148l.0021.0093Z" transform="translate(2.169089 0)" fill="#fff" stroke="#20201e" stroke-width="3.809"/><path d="M345.484,60.26l-.0123-.0169c-20.554-7.7133-46.5338-12.3201-74.7857-12.3201-28.2764,0-54.2701,4.6147-74.8329,12.3371c0,0,9.8636,7.7255,11.291,13.4322c1.4256,5.7023,2.037,13.8809-1.3902,20.2391c19.7078-9.7224,42.1451-15.1742,65.6055-15.1742c23.0117,0,45.1652,5.461,64.5861,14.8363-3.1338-6.2784-3.14-14.3556-1.7513-19.9012C335.61,68.0293,345.4887,60.29,345.4887,60.29l-.0047-.03Z" transform="translate(2.169089 0)" fill="#fff" stroke="#20201e" stroke-width="3.809" stroke-linejoin="bevel"/><path d="M205.7346,93.9546c19.7077-9.7224,42.145-15.1742,65.6054-15.1742c23.0117,0,45.1621,5.461,64.5861,14.8363-1.3334-2.6822-2.7344-9.532-2.5101-13.3523-19.5218-7.6746-40.5153-11.8702-62.3869-11.8702-22.1239,0-43.3405,4.2828-63.0477,12.1187.2517,7.0787-.7551,10.6338-2.2337,13.4023l-.0131.0394Z" transform="translate(2.169089 0)" fill="#fff" stroke="#20201e" stroke-width="3.809" stroke-linejoin="bevel"/><polygon points="261.3261,58.4352 271.079,63.3117 280.8004,58.4352 271.079,53.5588" transform="translate(2.169089 0)"/><polygon points="221.4651,64.7904 231.8472,68.0308 240.6878,61.6443 230.3056,58.4038" transform="translate(2.169089 0)"/><polygon points="320.6613,64.7904 310.2793,68.0308 301.4388,61.6443 311.8208,58.4038" transform="translate(2.169089 0)"/><ellipse rx="17.9302" ry="13.2394" transform="translate(273.122089-23.9577)" fill="#fff" stroke="#20201e" stroke-width="3.809"/></g></svg>
