<svg id="eIJfmBvSjqT1" xmlns="http://www.w3.org/2000/svg" xmlns:xlink="http://www.w3.org/1999/xlink" viewBox="0 0 45 45" shape-rendering="geometricPrecision" text-rendering="geometricPrecision" project-id="f1616fa2573b443fa764f5320e404f6b" export-id="a5bf02aa73974bd9b99ce6c15254bcf6" cached="false"><path d="M8,287.88c0,51.64,22.14,73.83,56,84.6v43.52h192v-43.52c33.86-10.77,56-33,56-84.6c0-30.61-10.73-67.1-26.69-102.56L185,285.65c-3.12377,3.121723-8.18623,3.121723-11.31,0l-11.31-11.31c-3.121723-3.12377-3.121723-8.18623,0-11.31L270.27,155.1C249.47,117.19,223.8,83,199.4,62.51C213.4,59.09,224,47.05,224,32c0-17.673112-14.326888-32-32-32h-64C110.326888,0,96,14.326888,96,32c0,15,10.6,27.09,24.6,30.51C67.81,106.8,8,214.5,8,287.88ZM304,448h-288c-8.836556,0-16,7.163444-16,16v32c0,8.836556,7.163444,16,16,16h288c8.836556,0,16-7.163444,16-16v-32c0-8.836556-7.163444-16-16-16Z" transform="matrix(.07 0 0 0.07 11.3 4.58)"/></svg>
