<svg id="eOgDK0lz3HN1" xmlns="http://www.w3.org/2000/svg" xmlns:xlink="http://www.w3.org/1999/xlink" viewBox="0 0 45 45" shape-rendering="geometricPrecision" text-rendering="geometricPrecision" project-id="7abeaac6633d4d0e91ef28a48dbb310c" export-id="ffad757a6f6d4018b506d4f0b59fa2d9" cached="false"><g transform="matrix(.2 0 0 0.2-130.757574-33.748498)"><path d="M713.5765,204.8543c0,0,3.4903-18.7567,3.4903-21.3745c0-2.6146,2.6146-3.0524,5.2322.4378s14.394,20.4986,14.394,20.4986l-23.1238.409.0073.0291Z" fill="#20201e" stroke="#20201e" stroke-width="2.684"/><path d="M870.0316,348.725c-1.1829-8.4551-2.802-16.517-4.7682-24.1824l-6.3198-2.5255l4.2214-5.0479c-2.4056-8.1081-5.2014-15.7427-8.2708-22.9183l-5.9788-1.6928l2.9888-5.0966c-3.2137-6.8252-6.664-13.1928-10.2493-19.1207l-5.5734-1.1183l2.0001-4.604c-4.0157-6.1953-8.145-11.8564-12.2402-16.9933l-5.8989-.6467l1.5761-4.5961c-4.7868-5.6239-9.4537-10.5168-13.7705-14.6967l-5.908-.3318l1.0323-4.229c-10.5259-9.5289-17.9702-14.1637-17.9702-14.1637l-13.3741,4.0711c0,0-6.3966-3.4918-11.6288-6.979c0,0-3.4903-11.6304-4.6484-18.0287-1.1675-6.3935-4.6578-3.4855-5.8159-1.7451-1.1675,1.7451-13.2324,15.1207-13.2324,15.1207s-7.2172-.9893-12.3541,0c-7.561,1.4548-11.0513,6.5442-19.7737,14.8319-6.3658,6.0402-10.1817,11.3401-12.3569,17.0072-2.1813,5.6699.4332,5.6699-.4363,10.9022-.8756,5.237-24.4281,44.4889-27.0397,49.2867-2.6207,4.7975-8.9406,19.468,3.4871,28.7864c3.4839,2.6176,6.1047,3.9294,8.2831,4.7959c0,0,3.4903-.8664,4.799-2.6115.2304-.3134.3533-.5069.4117-.6114.04-.1198.0615-.1229,0,0-.1352.341-.4424,1.6161.8972,3.2228c2.1813,2.6176,4.9835,2.4272,6.5442,2.6176c2.3227.295,6.5378-1.742,10.0313-6.9774c3.4871-5.2323,5.6686-6.9805,8.2861-10.0313c2.6146-3.0539,17.0515-9.8086,22.6833-19.1915c1.3058-2.1768,4.3596-1.3073,6.5379.4378c2.1813,1.7451,14.3908,2.1844,19.6263-6.5426c0,0,2.4733,22.9428-7.853,38.8196-17.0056,26.1642-45.7944,32.7068-54.5186,57.133h178.8238c0-8.4428-.4455-16.5478-1.2505-24.3391l-5.9479-3.14l5.0338-4.8764-.0851.0049Z" fill="#20201e" stroke="#20201e" stroke-width="2.684"/><path d="M777.9141,216.6836c0,0,76.1763,56.9915,76.1763,159.9221" fill="none" stroke="#fff" stroke-width="2.684"/><path d="M681.2032,320.945c.063-.0944.0315-.0944,0,0Z" fill="none" stroke="#20201e" stroke-width="2.684"/><path d="M762.2151,256.2299c1.4501,16.2788-6.1078,27.9108-6.3967,28.9276c0,0,18.3204-9.4474,20.0655-21.9534" fill="none" stroke="#fff" stroke-width="2.684"/><path d="M755.7971,285.1425c0,0,12.2125,5.9634,21.227,2.1829" fill="none" stroke="#fff" stroke-width="2.684"/><path d="M680.7943,321.5742c0,0,8.1417-10.4705,10.4705-15.2664" fill="none" stroke="#20201e" stroke-width="2.684"/><path d="M730.9429,224.9578c0,0-13.4108.0645-17.8843,7.4106-6.1047,10.0342.8756,11.3416.8756,11.3416s6.9742,2.1829,11.7733-4.3595c5.1092-6.9667.8694-11.3416.8694-11.3416l4.3416-3.0517.0244.0006Z" fill="none" stroke="#fff" stroke-width="2.684"/><path d="M665.9762,298.8909c4.796-1.3073,7.8467-.8726,10.025.4393c0,0-2.1783-6.5442,1.7451-12.2156c3.9294-5.6699,10.4737-6.1031,16.136-17.0056" fill="none" stroke="#fff" stroke-width="2.684"/><line x1="793.2985" y1="231.0612" x2="801.6041" y2="225.8387" fill="none" stroke="#fff" stroke-width="2.684"/><line x1="810.3188" y1="249.8119" x2="818.6245" y2="245.9108" fill="none" stroke="#fff" stroke-width="2.684"/><line x1="825.5774" y1="271.5829" x2="835.1729" y2="267.6503" fill="none" stroke="#fff" stroke-width="2.684"/><line x1="837.8156" y1="296.4999" x2="847.8202" y2="293.0078" fill="none" stroke="#fff" stroke-width="2.684"/><line x1="847.3798" y1="325.7271" x2="857.8562" y2="322.6754" fill="none" stroke="#fff" stroke-width="2.684"/><line x1="853.0742" y1="355.3632" x2="863.9597" y2="354.0733" fill="none" stroke="#fff" stroke-width="2.684"/></g></svg>
