<svg id="eSXodNhGn0x1" xmlns="http://www.w3.org/2000/svg" xmlns:xlink="http://www.w3.org/1999/xlink" viewBox="0 0 45 45" shape-rendering="geometricPrecision" text-rendering="geometricPrecision" project-id="7abeaac6633d4d0e91ef28a48dbb310c" export-id="bb0a13ea18b2487489935ed149f0027d" cached="false"><g transform="matrix(.2 0 0 0.2 113.490112 19.23163)"><path d="M-380.5172,120.193c2.7344,0,4.945-2.2121,4.945-4.9466v-11.6226c0-2.7344-2.2106-4.945-4.945-4.945h-148.8667c-2.7328,0-4.945,2.2106-4.945,4.945v11.6226c0,2.7344,2.212,4.9466,4.945,4.9466h148.8667Z" fill="#fff" stroke="#20201e" stroke-width="3.4947"/><rect width="142.766" height="18.3191" rx="0" ry="0" transform="translate(-526.332 80.3635)" fill="#fff" stroke="#20201e" stroke-width="3.4947"/><polygon points="-383.5658,80.3635 -398.2454,63.9094 -511.6526,63.9094 -526.3322,80.3635" fill="#fff" stroke="#20201e" stroke-width="3.4947" stroke-linejoin="bevel"/><polygon points="-379.092,-51.3664 -398.2454,-33.0436 -511.6526,-33.0436 -530.8688,-51.3664" fill="#fff" stroke="#20201e" stroke-width="3.4947" stroke-linejoin="round"/><rect width="113.256" height="96.9625" rx="0" ry="0" transform="translate(-511.652-33.0436)" fill="#fff" stroke="#20201e" stroke-width="3.4947"/><path d="M-383.7577,-87.5087h-26.4161v16.987l-14.8241,4.9098-13.6688-4.9098v-16.987h-32.562v16.987l-13.6688,4.9098-14.8256-4.9098v-16.987h-26.4162c-2.6115,0-4.7283,2.2121-4.7283,4.9419v31.2536h151.8429v-31.2536c-.0031-2.7308-2.1205-4.9425-4.7317-4.9425l-.0013.0006Z" fill="#fff" stroke="#20201e" stroke-width="3.4947" stroke-linecap="square"/></g></svg>
