<svg id="ecxVaknSlbo1" xmlns="http://www.w3.org/2000/svg" xmlns:xlink="http://www.w3.org/1999/xlink" viewBox="0 0 45 45" shape-rendering="geometricPrecision" text-rendering="geometricPrecision" project-id="7abeaac6633d4d0e91ef28a48dbb310c" export-id="34a54b822953452188026cf15a3efcf3" cached="false"><g transform="matrix(.2 0 0 0.2-79.16745 19.231726)"><path d="M572.5688,100.5929c-19.0854-8.9236-40.0026-13.609-63.0948-13.609s-45.4767,5.1156-65.1902,14.0407c19.0854,8.916,40.7356,13.9362,63.831,13.9362c23.1237.0314,44.7689-5.4427,64.4633-14.3462l-.0093-.0217Z" fill="#fff" stroke="#20201e" stroke-width="3.4947" stroke-linejoin="bevel"/><path d="M571.153,60.5431l-.0123-.0215c-17.1559-7.0724-37.1176-11.3753-63.0351-11.3753-25.9489,0-46.0116,4.3057-63.6706,11.397c0,0,1.9264,16.371,2.0062,21.7845.0952,6.0971-1.6099,18.5909-1.6099,18.5909c19.7121-8.9251,41.5598-13.9422,64.6521-13.9422c22.6493,0,45.6686,4.6483,63.0948,13.609-2.863-5.7259-1.4158-40.0183-1.4158-40.0183l-.0094-.0241Z" fill="#fff" stroke="#20201e" stroke-width="3.4947" stroke-linejoin="bevel"/><path d="M444.9005,100.8131c18.554-8.8239,41.4906-13.8378,64.583-13.8378c22.6493,0,41.6637,3.1936,63.0948,13.609-.8633-2.4072-1.441-9.8853-1.6284-12.5982-18.9688-7.0466-39.8893-11.0466-61.4212-11.0466-21.7706,0-43.674,4.2183-63.3245,11.4093-.409,2.8-1.2899,12.427-1.2899,12.427l-.0138.0373Z" fill="#fff" stroke="#20201e" stroke-width="3.4947" stroke-linejoin="bevel"/><path d="M613.7196,-43.8284c-4.587-2.6791-10.4796-1.1306-13.1588,3.4626-2.3012,3.9358-1.4809,8.8176,1.6867,11.824-13.1066,15.8871-37.0294,44.8727-42.8026,51.9042-1.696-.7573-3.4534-1.4763-5.2814-2.1476.5192-5.3921,4.3073-46.537,6.3167-68.4212c4.3658.0998,8.3938-2.7912,9.5336-7.1986c1.3303-5.1476-1.7574-10.3985-6.9067-11.7302-5.14-1.3319-10.3906,1.7589-11.7242,6.9035-1.1429,4.4089.9739,8.8915,4.8422,10.9207-9.4782,21.5126-27.8693,63.2616-27.9152,63.4346-.0092.0415-.0031.0845-.0123.1275-1.6713-.1982-3.389-.3748-5.14-.5192-.3472-2.315-8.2339-50.7118-12.3446-75.9183c4.7255-1.106,8.243-5.3351,8.243-10.3985c0-5.9021-4.7836-10.6933-10.6888-10.6933s-10.6917,4.7915-10.6917,10.6933c0,5.0633,3.5271,9.2923,8.2494,10.3985-4.0925,25.0935-11.9299,73.1623-12.3414,75.8774-1.8281.1475-3.6162.3211-5.3613.5269-.0123-.0614-.0092-.1137-.0276-.169-.043-.1736-18.4374-41.9279-27.9093-63.4378c3.8619-2.0278,5.9757-6.5086,4.8359-10.9207-1.3304-5.1445-6.5842-8.2355-11.7271-6.9035s-8.2339,6.5826-6.9006,11.7255c1.1429,4.4133,5.1646,7.3014,9.5304,7.2001c2.0093,21.8597,5.7853,62.9187,6.3168,68.396-1.7943.6544-3.5208,1.3534-5.186,2.0892-6.0066-7.3062-29.6575-35.9724-42.6704-51.7374c3.1737-3.0063,3.9911-7.8882,1.6959-11.824-2.676-4.5933-8.5719-6.1418-13.162-3.4626-4.587,2.6775-6.1387,8.5703-3.4626,13.1635c2.3012,3.9326,6.9589,5.6239,11.1343,4.3397c7.8253,20.3804,33.0843,85.9732,34.0501,86.8793c17.4111-7.0863,37.4322-11.397,63.3749-11.397c25.9306,0,45.9455,4.3057,63.3591,11.3907.9586-.9079,26.5511-65.9609,34.5787-86.873c4.1783,1.2842,8.8329-.4071,11.1312-4.3397c2.5798-4.5901,1.0381-10.4828-3.5551-13.1601l.0908-.0055Z" fill="#fff" stroke="#20201e" stroke-width="3.4947"/><polygon points="499.5166,63.6578 508.4514,68.1252 517.4178,63.6578 508.4514,59.1903"/><polygon points="462.959,69.4466 472.4917,72.4039 480.6085,66.5522 471.0759,63.5948"/><polygon points="553.9753,69.478 544.4427,72.4668 536.3259,66.6151 545.8585,63.6263"/></g></svg>
