<svg id="eQSzlan0OHe1" xmlns="http://www.w3.org/2000/svg" xmlns:xlink="http://www.w3.org/1999/xlink" viewBox="0 0 45 45" shape-rendering="geometricPrecision" text-rendering="geometricPrecision" project-id="7abeaac6633d4d0e91ef28a48dbb310c" export-id="c3b92504d186428ca9dcc9cbedab4e29" cached="false"><g transform="matrix(.2 0 0 0.2-128.661914 19.201218)"><path d="M703.1,-59.9081c0,0,3.4903-18.7551,3.4903-21.3714s2.6146-3.0539,5.2322.4363c2.6177,3.4887,14.394,20.4987,14.394,20.4987l-23.1238.4342.0073.0022Z" fill="#fff" stroke="#20201e" stroke-width="3.4947"/><path d="M859.5866,83.9501c-1.1829-8.4583-2.7989-16.5217-4.7682-24.1872l-6.3198-2.5224l4.2183-5.0479c-2.4026-8.1081-5.1955-15.7427-8.2676-22.9199l-5.982-1.6898l2.9587-5.057c-3.2137-6.8251-6.664-13.1912-10.2462-19.1194l-5.5764-1.1199l2.0032-4.604c-4.0186-6.1969-8.145-11.8564-12.2402-16.9933l-5.9021-.6467l1.5761-4.5961c-4.7899-5.6255-9.4568-10.5183-13.7733-14.6982l-5.9021-.3318l1.0292-4.229c-10.5291-9.5273-17.9702-14.1637-17.9702-14.1637l-13.374,4.0723c0,0-6.3935-3.4903-11.6288-6.979c0,0-3.4903-11.6305-4.6484-18.0271-1.1675-6.3966-4.6546-3.4903-5.819-1.7451-1.1614,1.7451-13.2297,15.1176-13.2297,15.1176s-7.2172-.9862-12.36,0c-7.5551,1.4578-11.045,6.5442-19.7738,14.8303-6.3567,6.0449-10.1725,11.3432-12.351,17.01-2.1813,5.6699.4332,5.6699-.4332,10.9037-.8787,5.2338-24.4313,44.4857-27.0429,49.2835-2.6207,4.7975-8.9374,19.4696,3.4871,28.7848c3.4839,2.6176,6.1078,3.9295,8.2861,4.7975c0,0,3.4871-.8679,4.796-2.613.2335-.3118.3503-.5023.4086-.6083.043-.1167.0645-.1244,0,0-.1321.3395-.4363,1.6145.9002,3.2213c2.1814,2.6192,4.9835,2.4241,6.541,2.6192c2.3258.2919,6.5411-1.742,10.0341-6.979c3.4903-5.2338,5.6715-6.9806,8.2893-10.0329c2.6115-3.0524,17.0487-9.807,22.6802-19.1899c1.3057-2.1767,4.3596-1.3088,6.5378.4378c2.1814,1.7451,14.394,2.1829,19.6263-6.5442c0,0,2.4732,22.9444-7.8498,38.8196-17.0084,26.1688-45.7945,32.7068-54.5186,57.1362h178.8206c0-8.4413-.4455-16.5462-1.2504-24.3423l-5.9448-3.1369l5.1282-4.845-.1485-.0648Z" fill="#fff" stroke="#20201e" stroke-width="3.4947"/><path d="M767.4376,-48.0788c0,0,76.1763,56.9946,76.1763,159.9221" fill="none" stroke="#20201e" stroke-width="2.684"/><path d="M670.7268,56.8622c.0629-.1258.0629-.1258,0,0Z" fill="none" stroke="#20201e" stroke-width="2.684"/><path d="M751.7386,-8.545c1.4532,16.2788-6.1078,27.9093-6.3967,28.9261c0,0,18.3204-9.4474,20.0627-21.9534" fill="none" stroke="#20201e" stroke-width="2.684"/><path d="M745.3521,20.399c0,0,12.2125,5.965,21.227,2.1845" fill="none" stroke="#20201e" stroke-width="2.684"/><path d="M670.3178,57.46c0,0,8.1417-10.4689,10.4736-15.2664" fill="none" stroke="#20201e" stroke-width="2.684"/><path d="M720.4979,-39.7888c0,0-13.4108.063-17.8811,7.4122-6.1047,10.0329.8694,11.3401.8694,11.3401s6.9774,2.1829,11.7764-4.3595c5.1093-6.9667.8726-11.3401.8726-11.3401l4.3416-3.0549.0211.0022Z" fill="none" stroke="#20201e" stroke-width="2.684"/><path d="M655.4996,34.7767c4.7991-1.3073,7.853-.8695,10.0314.4378c0,0-2.1783-6.5426,1.742-12.2141c3.9294-5.6699,10.4677-6.1078,16.1392-17.01" fill="none" stroke="#20201e" stroke-width="2.684"/><line x1="782.8535" y1="-33.6854" x2="791.1277" y2="-38.9174" fill="none" stroke="#20201e" stroke-width="2.684"/><line x1="799.8738" y1="-14.9316" x2="808.148" y2="-18.8548" fill="none" stroke="#20201e" stroke-width="2.684"/><line x1="815.1323" y1="6.8394" x2="824.7279" y2="2.9068" fill="none" stroke="#20201e" stroke-width="2.684"/><line x1="827.3392" y1="31.725" x2="837.3752" y2="28.2328" fill="none" stroke="#20201e" stroke-width="2.684"/><line x1="836.9348" y1="60.9521" x2="847.4111" y2="57.9004" fill="none" stroke="#20201e" stroke-width="2.684"/><line x1="842.5977" y1="90.6198" x2="853.5146" y2="89.2984" fill="none" stroke="#20201e" stroke-width="2.684"/></g></svg>
